<svg width="135" height="34" viewBox="0 0 135 34" fill="none" xmlns="http://www.w3.org/2000/svg">
<path d="M15.664 6.91171e-05C15.6965 4.63086e-05 15.729 2.34998e-05 15.7624 0C16.6182 0.000949542 17.445 0.0907426 18.281 0.278947C18.3153 0.286589 18.3496 0.294231 18.3849 0.302104C20.3578 0.752685 22.2447 1.6387 24.0626 2.5123C24.1241 2.54183 24.1857 2.57126 24.2472 2.60069C24.8772 2.90199 25.5007 3.21584 26.1238 3.5312C27.0285 3.98859 27.9462 4.41781 28.8664 4.84241C28.9088 4.86194 28.9088 4.86194 28.952 4.88188C31.4473 6.03231 34.0355 6.87567 39.7102 7.74105C39.7361 7.74305 39.7619 7.74505 39.7886 7.74711C40.5332 7.80367 41.276 7.8241 42.0226 7.82344C42.0661 7.82342 42.1096 7.8234 42.1544 7.82338C42.8797 7.82246 43.6015 7.80826 44.3246 7.7495C44.3641 7.7463 44.3641 7.7463 44.4043 7.74303C47.2214 7.51086 49.9219 6.83508 52.5913 5.92411C52.6562 5.902 52.7211 5.87988 52.786 5.85776C53.4036 5.6472 54.0211 5.43613 54.6379 5.22296C57.3418 4.2887 60.082 3.47799 63.0423 3.28745C63.0733 3.28554 63.1042 3.28364 63.136 3.28167C65.9172 3.11827 68.9476 3.49836 71.2419 5.21424C71.2621 5.22935 71.2824 5.24446 71.3032 5.26003C71.6024 5.48548 71.8804 5.73056 72.1492 5.99172C72.1701 6.01197 72.1909 6.03221 72.2124 6.05307C72.4781 6.31228 72.7304 6.57444 72.9557 6.87061C72.9706 6.88979 72.9855 6.90897 73.0009 6.92873C74.4406 8.78091 75.0556 10.9922 74.804 13.3271C74.5424 15.3855 73.5573 17.3553 71.9245 18.6574C71.6433 18.8746 71.344 19.0693 71.0485 19.266C71.0186 19.286 70.9887 19.3059 70.9579 19.3264C70.8752 19.3761 70.7945 19.4123 70.7042 19.4455C70.8731 19.7509 71.0517 20.0492 71.2353 20.3458C71.3711 20.5653 71.5054 20.7857 71.6388 21.0068C71.8059 21.2835 71.974 21.5594 72.1429 21.835C72.3455 22.1656 72.5464 22.4972 72.7465 22.8294C72.899 23.0825 73.0524 23.335 73.2077 23.5864C73.3755 23.8578 73.5409 24.1307 73.7055 24.404C73.9156 24.7528 74.1271 25.1005 74.3399 25.4477C74.5033 25.7143 74.6655 25.9817 74.8271 26.2494C74.9343 26.427 75.0422 26.6042 75.1509 26.7809C75.1631 26.8009 75.1754 26.8208 75.188 26.8413C75.2476 26.9384 75.3073 27.0354 75.3672 27.1323C75.3887 27.1673 75.4102 27.2023 75.4323 27.2383C75.4513 27.2692 75.4703 27.3 75.4899 27.3317C75.546 27.4278 75.595 27.5261 75.6441 27.6259C74.9021 27.6322 74.1602 27.637 73.4182 27.6399C73.0737 27.6413 72.7292 27.6432 72.3847 27.6463C72.0845 27.649 71.7843 27.6507 71.484 27.6513C71.325 27.6517 71.166 27.6525 71.007 27.6545C70.8574 27.6563 70.7078 27.6569 70.5581 27.6565C70.5032 27.6566 70.4483 27.6571 70.3933 27.6581C69.9776 27.6656 69.9776 27.6656 69.8624 27.5668C69.8181 27.497 69.7895 27.4336 69.7633 27.3555C69.7469 27.3257 69.7305 27.2959 69.7136 27.2652C69.7001 27.2388 69.6867 27.2124 69.6728 27.1851C69.6572 27.1548 69.6417 27.1244 69.6256 27.0931C69.6094 27.0612 69.5931 27.0292 69.5763 26.9963C69.4409 26.7325 69.3028 26.4705 69.1605 26.2104C68.9967 25.9107 68.8391 25.608 68.6831 25.3042C68.5643 25.0736 68.4427 24.8449 68.3183 24.6174C68.1745 24.3545 68.0351 24.0896 67.8982 23.823C67.7447 23.5241 67.5872 23.2277 67.426 22.9329C67.2885 22.6805 67.1561 22.4256 67.0244 22.17C66.9102 21.949 66.793 21.73 66.6737 21.5117C66.51 21.212 66.3524 20.9094 66.1963 20.6055C66.0776 20.3749 65.9559 20.1462 65.8315 19.9187C65.6878 19.6558 65.5484 19.3909 65.4115 19.1243C65.258 18.8256 65.1006 18.5294 64.9396 18.2347C64.7992 17.9772 64.6636 17.7172 64.5292 17.4564C64.4542 17.3109 64.3789 17.1656 64.3015 17.0214C64.2887 16.9977 64.276 16.974 64.2629 16.9496C64.2396 16.9064 64.2163 16.8633 64.1927 16.8202C64.1177 16.681 64.1177 16.681 64.1177 16.606C64.1396 16.6028 64.1615 16.5996 64.1841 16.5963C65.5823 16.391 65.5823 16.391 66.9762 16.1581C67.021 16.1503 67.021 16.1503 67.0667 16.1423C67.378 16.0878 67.6858 16.0254 67.9918 15.9456C68.0176 15.939 68.0434 15.9323 68.07 15.9254C68.825 15.7215 69.4075 15.1766 69.7942 14.5077C70.3212 13.561 70.4928 12.4821 70.2135 11.4251C69.9476 10.4855 69.3975 9.65685 68.6207 9.06783C68.6023 9.05378 68.5839 9.03974 68.5649 9.02526C67.3411 8.10947 65.7507 7.86098 64.2626 7.86992C64.2258 7.87003 64.189 7.87013 64.1511 7.87023C63.4609 7.87306 62.7842 7.91968 62.1014 8.01993C62.0772 8.02345 62.0529 8.02697 62.028 8.0306C59.9439 8.33595 57.9305 8.97072 55.9294 9.61225C52.8755 10.5913 49.8025 11.462 44.4989 12.1017C44.4717 12.1037 44.4446 12.1057 44.4166 12.1078C44.2292 12.1213 44.0417 12.1331 43.8541 12.1439C43.8265 12.1456 43.7989 12.1472 43.7704 12.1489C43.1378 12.1852 42.5048 12.1845 41.8714 12.1841C41.8301 12.1841 41.8301 12.1841 41.7879 12.1841C40.9779 12.1837 40.1695 12.181 39.3615 12.1163C39.2784 12.1097 39.1952 12.1033 39.112 12.0969C37.2901 11.9551 35.4855 11.6806 33.7055 11.2651C33.6683 11.2564 33.6683 11.2564 33.6303 11.2475C31.9721 10.8589 30.3353 10.3408 28.7656 9.67629C28.726 9.65964 28.6864 9.64299 28.6456 9.62583C27.5646 9.16975 26.5142 8.64829 25.4661 8.12134C25.4451 8.11079 25.4241 8.10025 25.4025 8.08939C24.9716 7.87285 24.5414 7.65528 24.1159 7.4283C23.8371 7.27976 23.5556 7.137 23.2734 6.99526C23.2459 6.98144 23.2184 6.96761 23.19 6.95337C22.6893 6.70202 22.1851 6.4601 21.675 6.22835C21.6314 6.20832 21.5877 6.18827 21.544 6.16822C20.8041 5.8289 20.054 5.5258 19.2891 5.24805C19.2502 5.23388 19.2113 5.21972 19.1713 5.20513C18.3812 4.92072 17.5669 4.71866 16.7352 4.60578C16.7108 4.60232 16.6865 4.59886 16.6614 4.59529C14.9091 4.38119 13.0328 4.81838 11.4222 5.50541C11.233 5.58608 11.233 5.58608 11.1232 5.58608C11.0381 5.39312 10.9532 5.20007 10.8685 5.00694C10.8396 4.94131 10.8108 4.87571 10.7818 4.81013C10.7401 4.71562 10.6986 4.62103 10.6572 4.52642C10.6443 4.49733 10.6314 4.46823 10.6182 4.43826C10.5498 4.28172 10.4933 4.1292 10.4511 3.96352C11.6466 3.38886 11.6466 3.38886 11.9969 3.38886C11.9848 3.3506 11.9727 3.31234 11.9602 3.27292C11.9444 3.22284 11.9287 3.17275 11.9129 3.12266C11.9009 3.08481 11.9009 3.08481 11.8886 3.0462C11.8289 2.85566 11.8289 2.85566 11.8289 2.7804C11.073 3.03984 11.073 3.03984 10.337 3.35017C10.2495 3.38886 10.2495 3.38886 10.1823 3.38886C10.0944 3.1577 10.0067 2.92645 9.91938 2.69509C9.87881 2.58765 9.83816 2.48025 9.79733 2.37293C9.75037 2.24951 9.70377 2.12595 9.6572 2.00239C9.6425 1.9639 9.6278 1.92541 9.61265 1.88575C9.59919 1.8499 9.58574 1.81404 9.57187 1.77709C9.55396 1.7298 9.55396 1.7298 9.53569 1.68156C9.51018 1.59728 9.51018 1.59728 9.51018 1.46207C11.2782 0.333508 13.609 0.00137675 15.664 6.91171e-05ZM14.9812 2.15258C14.9571 2.15574 14.933 2.15891 14.9082 2.16217C14.8831 2.16565 14.858 2.16914 14.8322 2.17273C14.7922 2.17812 14.7922 2.17812 14.7514 2.18361C14.6954 2.1912 14.6395 2.19887 14.5836 2.20663C14.4985 2.2184 14.4134 2.22978 14.3283 2.24113C14.2736 2.24859 14.219 2.25607 14.1643 2.26358C14.1266 2.2686 14.1266 2.2686 14.0881 2.27372C13.9348 2.2953 13.7915 2.32868 13.6435 2.37476C13.6539 2.46351 13.6644 2.55224 13.6751 2.64096C13.6794 2.6788 13.6794 2.6788 13.6839 2.71741C13.6984 2.85461 13.6984 2.85461 13.7444 2.98322C14.1001 2.94226 14.4556 2.89901 14.811 2.85501C14.8602 2.84893 14.9095 2.84289 14.9588 2.83689C15.029 2.82835 15.0991 2.81964 15.1693 2.8109C15.2103 2.80584 15.2514 2.80079 15.2937 2.79558C15.3887 2.78585 15.3887 2.78585 15.4582 2.7466C15.436 2.5458 15.4138 2.34501 15.391 2.13813C15.1833 2.13597 15.1833 2.13597 14.9812 2.15258ZM17.2728 2.13813C17.2396 2.35008 17.2063 2.56203 17.172 2.7804C17.2322 2.79064 17.2923 2.80088 17.3542 2.81143C17.7958 2.88794 18.2315 2.97159 18.6645 3.0874C18.7752 3.12123 18.7752 3.12123 18.8523 3.11843C18.8804 3.02973 18.9084 2.941 18.9363 2.85223C18.9443 2.827 18.9523 2.80177 18.9606 2.77578C19.0044 2.64544 19.0044 2.64544 19.0203 2.50997C18.7133 2.40876 18.4064 2.33129 18.0899 2.26701C18.0273 2.25384 18.0273 2.25384 17.9635 2.2404C17.7332 2.19294 17.5072 2.15675 17.2728 2.13813ZM20.7677 3.05083C20.7012 3.25162 20.6347 3.45241 20.5661 3.65929C20.7842 3.74697 21.0025 3.83423 21.221 3.92111C21.2953 3.95074 21.3696 3.98048 21.4439 4.01034C21.5504 4.05317 21.6572 4.0956 21.7639 4.13795C21.7972 4.15143 21.8305 4.16492 21.8648 4.17881C21.8957 4.19099 21.9267 4.20318 21.9586 4.21573C21.9994 4.23206 21.9994 4.23206 22.0411 4.24871C22.1174 4.27623 22.1174 4.27623 22.2127 4.23395C22.2531 4.15573 22.2874 4.08085 22.3198 3.99943C22.329 3.97758 22.3382 3.95573 22.3476 3.93321C22.3977 3.81704 22.3977 3.81704 22.4144 3.69309C21.9979 3.51488 21.5802 3.34137 21.1563 3.18181C21.1213 3.16864 21.0863 3.15546 21.0502 3.14188C20.9126 3.08029 20.9126 3.08029 20.7677 3.05083ZM24.0946 4.47057C24.0059 4.66021 23.9172 4.84984 23.8257 5.04523C24.0061 5.14018 24.0061 5.14018 24.1864 5.23504C24.3526 5.32284 24.5175 5.41266 24.6815 5.50474C24.7176 5.52491 24.7538 5.54508 24.791 5.56585C24.8624 5.60574 24.9335 5.64596 25.0045 5.68653C25.0372 5.70475 25.0699 5.72298 25.1036 5.74176C25.1327 5.7582 25.1617 5.77463 25.1916 5.79157C25.2681 5.82832 25.2681 5.82832 25.3444 5.81693C25.4472 5.76952 25.4829 5.66879 25.5312 5.57129C25.5471 5.54093 25.5471 5.54093 25.5633 5.50996C25.6219 5.40154 25.6219 5.40154 25.6404 5.28185C25.2524 5.0669 24.8631 4.85447 24.4705 4.64804C24.4369 4.63029 24.4032 4.61254 24.3685 4.59426C24.3375 4.57802 24.3065 4.56178 24.2746 4.54504C24.2471 4.53063 24.2196 4.51622 24.1912 4.50137C24.1348 4.46811 24.1348 4.46811 24.0946 4.47057ZM62.7984 5.31024C62.7693 5.31316 62.7402 5.31608 62.7102 5.31909C62.6491 5.32526 62.5879 5.33148 62.5267 5.33776C62.4333 5.34734 62.3399 5.3567 62.2465 5.36603C62.1868 5.37207 62.1272 5.37812 62.0675 5.38418C62.0397 5.38697 62.0119 5.38975 61.9833 5.39262C61.8529 5.40611 61.7254 5.42167 61.5973 5.45087C61.6021 5.51989 61.6071 5.5889 61.612 5.65791C61.6148 5.69635 61.6175 5.73478 61.6203 5.77438C61.6302 5.88204 61.6463 5.98665 61.6645 6.09313C61.8546 6.0745 62.0447 6.05586 62.2347 6.03722C62.2993 6.03089 62.3638 6.02456 62.4283 6.01824C62.5216 6.00909 62.6149 5.99995 62.7081 5.9908C62.7365 5.98801 62.7649 5.98523 62.7942 5.98236C62.989 5.96325 63.1837 5.94378 63.3784 5.92411C63.3793 5.84876 63.3799 5.77341 63.3805 5.69805C63.3809 5.65609 63.3813 5.61413 63.3817 5.5709C63.3789 5.46904 63.3686 5.38046 63.3448 5.28185C63.1606 5.27852 62.9816 5.29136 62.7984 5.31024ZM65.2266 5.31565C65.1712 5.42719 65.1802 5.55198 65.1741 5.67481C65.1727 5.70192 65.1712 5.72902 65.1697 5.75695C65.1662 5.82393 65.1628 5.89092 65.1594 5.95792C65.2136 5.9666 65.2136 5.9666 65.2688 5.97546C65.4039 5.99717 65.539 6.019 65.674 6.04086C65.7323 6.05027 65.7905 6.05964 65.8488 6.06898C65.9329 6.08249 66.0171 6.09612 66.1013 6.10977C66.1269 6.11386 66.1526 6.11794 66.179 6.12216C66.3332 6.1473 66.4847 6.17823 66.6366 6.21535C66.7156 6.23251 66.7156 6.23251 66.8397 6.22835C66.8622 6.14599 66.8846 6.06359 66.9069 5.98116C66.9165 5.94616 66.9165 5.94616 66.9263 5.91045C66.9532 5.81061 66.9741 5.72381 66.9741 5.61988C66.1103 5.39771 66.1103 5.39771 65.2266 5.31565ZM59.3074 5.88569C59.2815 5.8922 59.2557 5.89871 59.229 5.90542C59.1745 5.91921 59.1201 5.93311 59.0656 5.94712C58.9832 5.96831 58.9006 5.98912 58.8181 6.00988C58.565 6.07397 58.3147 6.13958 58.0689 6.22835C58.073 6.25168 58.0772 6.27501 58.0815 6.29906C58.0915 6.35471 58.1015 6.41037 58.1115 6.46603C58.143 6.59461 58.1891 6.71344 58.2369 6.83681C58.7878 6.70995 59.3355 6.56981 59.8835 6.43117C59.8788 6.37807 59.8739 6.32499 59.8689 6.27192C59.8662 6.24236 59.8635 6.2128 59.8607 6.18234C59.8457 6.05852 59.8159 5.94281 59.7827 5.8227C59.6159 5.81486 59.4678 5.84416 59.3074 5.88569ZM27.2534 6.16074C27.2075 6.24292 27.1621 6.32532 27.1169 6.40793C27.1038 6.43126 27.0907 6.45459 27.0772 6.47864C27.0437 6.54033 27.0139 6.60399 26.9846 6.66779C27.007 6.76897 27.007 6.76897 27.0696 6.80532C27.0917 6.8163 27.1138 6.82728 27.1366 6.8386C27.1616 6.85123 27.1866 6.86386 27.2124 6.87688C27.2396 6.89019 27.2668 6.90351 27.2949 6.91722C27.3228 6.93117 27.3507 6.94513 27.3794 6.9595C27.4689 7.00413 27.5586 7.04828 27.6483 7.09244C27.7082 7.12232 27.7682 7.15223 27.8281 7.18217C28.1811 7.38582 28.1811 7.38582 28.564 7.47907C28.6804 7.21135 28.6804 7.21135 28.7992 6.93822C28.4481 6.74802 28.0951 6.56799 27.7339 6.39802C27.5722 6.32194 27.4123 6.24251 27.2534 6.16074ZM68.7551 6.26215C68.6664 6.44063 68.5777 6.61911 68.4863 6.803C68.5837 6.87651 68.6618 6.92913 68.7681 6.98258C68.7966 6.99715 68.8251 7.01172 68.8545 7.02673C68.8848 7.04214 68.9151 7.05755 68.9463 7.07343C69.2165 7.21218 69.4718 7.36277 69.7185 7.54067C69.8343 7.62731 69.8343 7.62731 69.9716 7.63581C70.0518 7.56243 70.1121 7.48351 70.1749 7.39456C70.1987 7.36145 70.2224 7.32833 70.2469 7.29421C70.3069 7.21603 70.3069 7.21603 70.3009 7.14104C70.2292 7.08622 70.1579 7.03612 70.0825 6.98681C70.0486 6.96437 70.0486 6.96437 70.0139 6.94148C69.4153 6.50574 69.4153 6.50574 68.7551 6.26215ZM56.1395 6.8167C56.108 6.82709 56.0765 6.83749 56.0441 6.84819C55.9001 6.89613 55.7562 6.94438 55.6123 6.99285C55.5362 7.01838 55.4601 7.04369 55.3839 7.06878C55.2744 7.10484 55.1652 7.14161 55.056 7.17854C55.0217 7.18967 54.9875 7.2008 54.9521 7.21227C54.9049 7.2285 54.9049 7.2285 54.8567 7.24505C54.8148 7.25902 54.8148 7.25902 54.7722 7.27326C54.7033 7.30458 54.7033 7.30458 54.6802 7.37397C54.6712 7.49252 54.7172 7.59741 54.7567 7.70724C54.7649 7.73082 54.773 7.75439 54.7814 7.77868C54.8016 7.83667 54.8222 7.89451 54.8428 7.95232C54.8773 7.94074 54.9119 7.92916 54.9475 7.91723C55.5871 7.70275 55.5871 7.70275 55.6683 7.67557C55.7216 7.65766 55.7749 7.63968 55.8282 7.62163C55.9453 7.58204 56.0624 7.54373 56.1808 7.50805C56.2173 7.49692 56.2538 7.48579 56.2915 7.47432C56.3228 7.46524 56.3542 7.45617 56.3865 7.44682C56.4608 7.41802 56.4608 7.41802 56.485 7.34769C56.4924 7.22912 56.4471 7.12413 56.4075 7.01427C56.3953 6.97891 56.3953 6.97891 56.3828 6.94284C56.3626 6.88485 56.3421 6.82701 56.3214 6.7692C56.2586 6.7692 56.1987 6.79719 56.1395 6.8167ZM30.4459 7.64809C30.412 7.7304 30.3785 7.8128 30.345 7.89528C30.3354 7.91861 30.3258 7.94194 30.3159 7.96599C30.2748 8.06777 30.2442 8.14564 30.2442 8.25655C30.7865 8.48197 31.3318 8.68579 31.8909 8.86501C31.92 8.78345 31.9486 8.70177 31.977 8.61994C31.9894 8.58536 31.9894 8.58536 32.0021 8.55008C32.032 8.46274 32.0588 8.38161 32.059 8.28859C32.0034 8.18012 31.8966 8.16233 31.7874 8.12675C31.7631 8.11834 31.7389 8.10993 31.7139 8.10126C31.6358 8.07433 31.5575 8.04817 31.4792 8.02204C31.4026 7.99595 31.3261 7.96972 31.2496 7.94346C31.1995 7.92628 31.1493 7.90916 31.0992 7.89211C30.8789 7.81692 30.6621 7.73437 30.4459 7.64809ZM52.7218 7.95084C52.6941 7.95875 52.6664 7.96665 52.6378 7.9748C52.608 7.98363 52.5782 7.99247 52.5475 8.00157C52.5013 8.01491 52.5013 8.01491 52.4542 8.02851C52.389 8.04739 52.3239 8.06641 52.2588 8.08556C52.1593 8.11479 52.0598 8.14362 51.9603 8.17237C51.897 8.19077 51.8337 8.20919 51.7704 8.22763C51.7407 8.23626 51.711 8.24489 51.6804 8.25378C51.5442 8.2939 51.4112 8.33506 51.2807 8.39176C51.2904 8.44883 51.3002 8.50587 51.3101 8.56289C51.3156 8.59466 51.321 8.62642 51.3267 8.65915C51.3502 8.7749 51.3824 8.8868 51.4151 9.00022C51.8127 8.91068 52.2032 8.80524 52.5934 8.68754C52.6458 8.67186 52.6983 8.65619 52.7507 8.64054C52.8769 8.60285 53.0029 8.56497 53.129 8.52698C53.1036 8.43174 53.0776 8.33673 53.0513 8.24176C53.0405 8.20107 53.0405 8.20107 53.0295 8.15956C53.0223 8.13374 53.015 8.10793 53.0076 8.08133C52.9978 8.04548 52.9978 8.04548 52.9878 8.00891C52.979 7.99023 52.9701 7.97156 52.961 7.95232C52.8517 7.91568 52.8278 7.92003 52.7218 7.95084ZM71.4414 8.67275C71.4227 8.68641 71.4041 8.70007 71.3849 8.71415C71.2916 8.78442 71.2459 8.81892 71.2083 8.93262C71.2554 9.01156 71.3039 9.08427 71.3574 9.15868C71.606 9.51868 71.798 9.90672 71.9476 10.3186C72.1649 10.2793 72.3541 10.2129 72.5524 10.1157C72.3988 9.58436 72.1243 9.11442 71.8131 8.66219C71.7943 8.63452 71.7755 8.60685 71.756 8.57834C71.7344 8.55292 71.7344 8.55292 71.7123 8.52698C71.6015 8.52698 71.5268 8.60791 71.4414 8.67275ZM33.8063 8.7636C33.7837 8.83959 33.7613 8.91567 33.7391 8.99177C33.7266 9.03413 33.7142 9.07648 33.7013 9.12012C33.6664 9.23862 33.6664 9.23862 33.6719 9.37206C34.0118 9.46776 34.3525 9.54831 34.6985 9.61857C34.776 9.63434 34.8536 9.65035 34.9311 9.66639C34.9806 9.67657 35.0302 9.68674 35.0797 9.69689C35.1028 9.70164 35.1259 9.70639 35.1496 9.71129C35.2668 9.73563 35.2668 9.73563 35.3857 9.7439C35.4028 9.66859 35.4195 9.59323 35.4361 9.51784C35.4455 9.47588 35.4549 9.43391 35.4645 9.39068C35.4831 9.28943 35.4884 9.2037 35.4865 9.10163C35.2635 9.05335 35.0404 9.00522 34.8173 8.95721C34.7414 8.94085 34.6654 8.92446 34.5895 8.90802C34.4805 8.88443 34.3715 8.86098 34.2625 8.83754C34.2284 8.83015 34.1944 8.82276 34.1594 8.81514C34.1277 8.80837 34.0961 8.8016 34.0636 8.79463C34.0218 8.78562 34.0218 8.78562 33.9792 8.77643C33.9028 8.76065 33.9028 8.76065 33.8063 8.7636ZM49.1676 8.89208C49.1377 8.89872 49.1079 8.90536 49.0771 8.9122C48.9813 8.93358 48.8855 8.95528 48.7898 8.97698C48.726 8.99124 48.6622 9.00548 48.5984 9.0197C48.338 9.07796 48.078 9.13696 47.8194 9.20304C47.8299 9.27277 47.8404 9.34249 47.8509 9.4122C47.8568 9.45103 47.8626 9.48985 47.8687 9.52985C47.8838 9.62434 47.9008 9.71785 47.9203 9.81151C48.1484 9.79326 48.3674 9.75875 48.5905 9.70785C48.6206 9.70115 48.6507 9.69444 48.6817 9.68753C48.7766 9.66636 48.8714 9.64492 48.9662 9.62347C49.031 9.60895 49.0959 9.59445 49.1607 9.57997C49.3186 9.54467 49.4763 9.50914 49.6341 9.47347C49.6289 9.42474 49.6236 9.37602 49.6183 9.3273C49.6139 9.2866 49.6139 9.2866 49.6094 9.24508C49.5997 9.16241 49.5865 9.08159 49.569 9.00022C49.5638 8.97512 49.5587 8.95003 49.5534 8.92417C49.4974 8.75934 49.2946 8.86305 49.1676 8.89208ZM37.2676 9.43967C37.2562 9.50301 37.245 9.5664 37.234 9.62981C37.2278 9.66511 37.2215 9.7004 37.2151 9.73677C37.2008 9.84212 37.1979 9.94196 37.2004 10.0481C37.5343 10.1133 37.8688 10.1649 38.2064 10.2066C38.2589 10.2132 38.2589 10.2132 38.3124 10.22C38.5253 10.2455 38.7335 10.2566 38.9478 10.2509C38.9737 10.0459 38.9847 9.84919 38.9814 9.64249C38.9099 9.60653 38.8598 9.59888 38.7808 9.58933C38.7395 9.58426 38.7395 9.58426 38.6975 9.57909C38.6677 9.57556 38.6379 9.57204 38.6072 9.56841C38.5765 9.56471 38.5458 9.56101 38.5142 9.55719C38.4492 9.54937 38.3841 9.54162 38.3191 9.53392C38.22 9.52218 38.121 9.51015 38.0219 9.4981C37.9587 9.49053 37.8954 9.48298 37.8322 9.47545C37.788 9.47007 37.788 9.47007 37.7429 9.46457C37.5832 9.4459 37.4284 9.43596 37.2676 9.43967ZM45.4613 9.53566C45.433 9.53859 45.4046 9.54151 45.3753 9.54452C45.3158 9.55067 45.2562 9.5569 45.1967 9.56319C45.1057 9.57279 45.0146 9.58214 44.9235 9.59145C44.8655 9.59749 44.8074 9.60354 44.7493 9.60961C44.7222 9.61239 44.6951 9.61518 44.6671 9.61804C44.5494 9.63059 44.4397 9.64735 44.3246 9.67629C44.3357 9.88824 44.3467 10.1002 44.3582 10.3186C44.5476 10.3007 44.7371 10.2827 44.9265 10.2645C44.9908 10.2583 45.0551 10.2523 45.1194 10.2462C45.6153 10.2012 45.6153 10.2012 46.1056 10.1157C46.1009 10.0333 46.0959 9.95094 46.0909 9.86855C46.0896 9.84522 46.0883 9.82188 46.0869 9.79784C46.0804 9.69415 46.0712 9.60633 46.0384 9.50728C45.8437 9.50428 45.6549 9.51512 45.4613 9.53566ZM40.7961 9.7439C40.785 9.95585 40.7739 10.1678 40.7625 10.3862C41.1353 10.426 41.5053 10.4238 41.8798 10.4221C41.9444 10.4219 42.0089 10.4218 42.0734 10.4216C42.2301 10.4212 42.3868 10.4207 42.5435 10.42C42.5444 10.351 42.5451 10.2819 42.5456 10.2129C42.546 10.1745 42.5464 10.1361 42.5468 10.0965C42.5457 9.96533 42.5457 9.96533 42.5099 9.7777C41.9443 9.76655 41.3788 9.75539 40.7961 9.7439ZM72.2836 12.0087C72.2775 12.0809 72.2714 12.1531 72.2651 12.2275C72.2588 12.2994 72.2525 12.3712 72.2461 12.443C72.2418 12.492 72.2376 12.541 72.2335 12.59C72.2077 12.8975 72.1676 13.1952 72.102 13.4968C72.0787 13.5969 72.0787 13.5969 72.082 13.6989C72.3814 13.7658 72.3814 13.7658 72.6869 13.8341C72.8824 13.244 72.9093 12.6256 72.8885 12.0087C72.6889 12.0087 72.4893 12.0087 72.2836 12.0087ZM71.4099 15.3215C71.3478 15.3997 71.3478 15.3997 71.2881 15.501C71.0375 15.8917 70.7319 16.2156 70.4018 16.5384C70.5206 16.7002 70.6418 16.8583 70.7714 17.0116C71.2581 16.788 71.7265 16.1221 71.9812 15.6595C71.9812 15.6372 71.9812 15.6149 71.9812 15.5919C71.905 15.5465 71.8287 15.5015 71.7522 15.4567C71.7306 15.4438 71.709 15.4309 71.6868 15.4176C71.5571 15.3407 71.5571 15.3407 71.4099 15.3215ZM68.7252 17.6181C68.6913 17.6322 68.6574 17.6462 68.6224 17.6607C68.5675 17.6835 68.5675 17.6835 68.5115 17.7067C68.1429 17.8576 67.7715 17.9861 67.3909 18.102C67.2624 18.142 67.135 18.1851 67.0077 18.2286C67.0211 18.253 67.0345 18.2775 67.0482 18.3028C67.1384 18.4683 67.228 18.6335 67.3101 18.8032C67.5398 18.7874 67.7499 18.7493 67.9696 18.6807C67.9986 18.6718 68.0275 18.6629 68.0573 18.6537C68.4682 18.5233 68.8526 18.3442 69.2256 18.1271C69.1696 17.9188 69.0617 17.739 68.9568 17.5525C68.8676 17.5525 68.8076 17.5835 68.7252 17.6181ZM68.3309 19.9145C68.3076 19.9204 68.2843 19.9263 68.2602 19.9323C68.2006 19.9482 68.1417 19.967 68.083 19.9863C68.0719 20.0086 68.0609 20.031 68.0494 20.0539C68.0819 20.1275 68.0819 20.1275 68.1325 20.2095C68.1515 20.2418 68.1704 20.274 68.1899 20.3073C68.2108 20.3422 68.2317 20.3771 68.2532 20.4131C68.2964 20.4864 68.3395 20.5598 68.3827 20.6331C68.4052 20.6711 68.4277 20.7091 68.4509 20.7483C68.5634 20.9386 68.6738 21.1302 68.7845 21.3216C68.8243 21.3902 68.8642 21.4589 68.904 21.5276C68.9328 21.5772 68.9616 21.6269 68.9904 21.6765C69.1172 21.6267 69.2345 21.5697 69.3537 21.5033C69.3865 21.485 69.4193 21.4668 69.4531 21.4481C69.4778 21.4342 69.5025 21.4203 69.528 21.4061C69.5083 21.273 69.4682 21.1786 69.4 21.0633C69.3806 21.0301 69.3612 20.997 69.3412 20.9628C69.3204 20.9278 69.2996 20.8928 69.2781 20.8568C69.2352 20.7841 69.1923 20.7113 69.1495 20.6386C69.1176 20.5848 69.1176 20.5848 69.0851 20.5299C69.0296 20.4353 68.9753 20.3402 68.9216 20.2446C68.9064 20.2179 68.8913 20.1911 68.8757 20.1636C68.8477 20.114 68.8199 20.0642 68.7924 20.0143C68.7522 19.9417 68.7522 19.9417 68.6879 19.8511C68.5627 19.8511 68.451 19.8825 68.3309 19.9145ZM70.4354 22.961C70.3474 23.0087 70.2636 23.0578 70.1791 23.111C70.1554 23.1257 70.1316 23.1404 70.1072 23.1555C70.0484 23.1918 69.9898 23.2285 69.9313 23.2653C70.0742 23.5317 70.2212 23.7956 70.3705 24.0584C70.4062 24.1214 70.4419 24.1844 70.4775 24.2475C70.5006 24.2883 70.5238 24.329 70.5469 24.3698C70.5675 24.406 70.588 24.4423 70.6092 24.4796C70.6712 24.5846 70.7368 24.6854 70.805 24.7864C70.8631 24.7548 70.9212 24.7231 70.9793 24.6913C71.0279 24.6649 71.0279 24.6649 71.0774 24.6379C71.1671 24.5878 71.2551 24.5358 71.3427 24.4822C71.295 24.3538 71.2363 24.2384 71.1681 24.1199C71.1469 24.0829 71.1257 24.046 71.1039 24.008C71.0813 23.9689 71.0587 23.9297 71.036 23.8906C71.0131 23.8508 70.9901 23.811 70.9672 23.7712C70.7535 23.3155 70.7535 23.3155 70.4354 22.961ZM71.977 26.2062C71.9548 26.2191 71.9327 26.232 71.9099 26.2452C71.8552 26.2772 71.8005 26.3092 71.7459 26.3414C71.7683 26.4565 71.8128 26.5439 71.871 26.6451C71.8891 26.6767 71.9072 26.7083 71.9258 26.7408C71.9448 26.7735 71.9637 26.8063 71.9833 26.84C72.0024 26.8732 72.0214 26.9065 72.0411 26.9407C72.0882 27.0227 72.1354 27.1046 72.1828 27.1865C72.3204 27.1865 72.4102 27.1199 72.5251 27.0512C72.5471 27.0383 72.5691 27.0254 72.5918 27.0122C72.646 26.9803 72.7 26.9482 72.7541 26.916C72.6487 26.6933 72.5367 26.4762 72.4096 26.2653C72.3873 26.2282 72.3649 26.1911 72.3419 26.1528C72.3227 26.1258 72.3034 26.0988 72.2836 26.0709C72.1679 26.0709 72.0747 26.1485 71.977 26.2062Z" fill="#000A3A"/>
<path d="M59.8773 14.5142C59.9595 14.59 60.039 14.6682 60.1187 14.7465C60.149 14.7745 60.1792 14.8024 60.2104 14.8312C61.4836 16.04 61.9883 18.0074 62.0438 19.7123C62.048 19.9056 62.0484 20.0987 62.0473 20.2921C62.0468 20.4086 62.0473 20.5251 62.048 20.6417C62.0499 22.6531 61.5267 24.715 60.1027 26.1897C59.0907 27.2019 57.7208 27.6349 56.3163 27.6317C55.2278 27.6216 54.2026 27.2994 53.3978 26.5439C53.3681 26.5164 53.3385 26.4889 53.3079 26.4606C52.9612 26.126 52.6991 25.7412 52.4569 25.327C52.4236 25.2712 52.3903 25.2154 52.3561 25.158C52.345 27.7794 52.3339 30.4009 52.3225 33.1018C50.781 33.1018 49.2396 33.1018 47.6514 33.1018C47.6514 26.6653 47.6514 20.2288 47.6514 13.5972C49.0376 13.5972 50.4238 13.5972 51.852 13.5972C51.8752 13.7374 51.8916 13.863 51.8981 14.0033C51.901 14.0624 51.901 14.0624 51.9039 14.1227C51.9058 14.1649 51.9078 14.207 51.9098 14.2504C51.913 14.3175 51.9162 14.3845 51.9194 14.4515C51.9239 14.5452 51.9283 14.6388 51.9327 14.7325C51.9403 14.8957 51.948 15.0588 51.9559 15.222C51.96 15.3087 51.9641 15.3954 51.9681 15.4821C51.9796 15.7221 51.996 15.961 52.02 16.2001C52.038 16.1641 52.0559 16.1281 52.0744 16.091C52.6838 14.8882 53.6538 13.9532 54.9436 13.5296C56.5741 13.0294 58.5904 13.3649 59.8773 14.5142ZM53.1575 17.5253C52.3318 18.4923 52.254 19.9049 52.3298 21.1174C52.3962 21.8926 52.5649 22.7137 53.0618 23.3326C53.0928 23.3721 53.0928 23.3721 53.1245 23.4123C53.4661 23.8236 53.9734 24.0997 54.5064 24.1541C54.6103 24.1586 54.7135 24.1597 54.8176 24.1587C54.8728 24.1582 54.8728 24.1582 54.9292 24.1578C55.5379 24.1451 56.0608 23.9375 56.4965 23.502C57.037 22.9316 57.2515 22.1385 57.3296 21.372C57.3333 21.3375 57.337 21.303 57.3408 21.2674C57.4468 20.0801 57.4175 18.6045 56.6575 17.6198C56.2772 17.1687 55.8288 16.9132 55.2461 16.8085C54.4226 16.7485 53.7489 16.9163 53.1575 17.5253Z" fill="#1B5DEF"/>
<path d="M92.8161 13.53C94.3465 13.53 95.8768 13.53 97.4536 13.53C97.4552 14.1147 97.4569 14.6994 97.4586 15.3019C97.4598 15.673 97.461 16.0441 97.4622 16.4152C97.4629 16.6103 97.4636 16.8054 97.4642 17.0005C97.4643 17.0249 97.4644 17.0494 97.4645 17.0746C97.4658 17.4678 97.4669 17.8611 97.4679 18.2543C97.469 18.6587 97.4703 19.0631 97.4718 19.4675C97.4727 19.6943 97.4734 19.9211 97.4738 20.1479C97.4743 20.3619 97.475 20.5759 97.476 20.7899C97.4763 20.8679 97.4765 20.946 97.4766 21.024C97.4441 22.3155 97.4441 22.3155 97.9912 23.4344C98.5314 23.8784 99.131 23.9555 99.8059 23.9076C100.297 23.843 100.705 23.6154 101.049 23.2654C101.068 23.2479 101.086 23.2303 101.105 23.2123C101.742 22.555 101.77 21.4638 101.769 20.6103C101.77 20.5326 101.77 20.4549 101.771 20.3772C101.771 20.1683 101.772 19.9595 101.772 19.7506C101.772 19.5316 101.773 19.3126 101.774 19.0935C101.775 18.7266 101.776 18.3596 101.777 17.9927C101.778 17.615 101.779 17.2374 101.78 16.8598C101.78 16.8244 101.78 16.8244 101.78 16.7883C101.781 16.583 101.781 16.3777 101.782 16.1724C101.785 15.2916 101.787 14.4108 101.789 13.53C103.33 13.53 104.871 13.53 106.46 13.53C106.46 18.0701 106.46 22.6103 106.46 27.288C105.085 27.288 103.709 27.288 102.293 27.288C102.268 27.1623 102.253 27.0546 102.246 26.9283C102.245 26.8908 102.243 26.8533 102.241 26.8147C102.239 26.7745 102.237 26.7343 102.235 26.6928C102.233 26.6511 102.231 26.6094 102.228 26.5664C102.223 26.4556 102.217 26.3447 102.212 26.2339C102.204 26.0785 102.197 25.923 102.189 25.7677C102.185 25.6851 102.181 25.6025 102.177 25.5199C102.165 25.2971 102.149 25.0758 102.125 24.8541C102.109 24.8852 102.094 24.9164 102.078 24.9484C101.83 25.4362 101.527 25.8461 101.15 26.2401C101.121 26.2727 101.121 26.2727 101.091 26.306C100.286 27.1788 98.9594 27.5102 97.8232 27.5584C96.4622 27.6043 95.0696 27.3496 94.0417 26.3909C93.1908 25.5377 92.8141 24.3222 92.8118 23.1315C92.8119 23.094 92.812 23.0564 92.8121 23.0177C92.8121 22.977 92.812 22.9363 92.812 22.8943C92.812 22.7821 92.8121 22.67 92.8122 22.5578C92.8124 22.4365 92.8123 22.3152 92.8123 22.1939C92.8123 21.9841 92.8124 21.7742 92.8126 21.5644C92.8129 21.261 92.8129 20.9576 92.813 20.6542C92.8131 20.1619 92.8133 19.6696 92.8136 19.1773C92.8139 18.6992 92.8141 18.2211 92.8143 17.743C92.8143 17.7132 92.8143 17.6834 92.8143 17.6527C92.8144 17.4197 92.8145 17.1867 92.8145 16.9536C92.8148 15.8124 92.8155 14.6712 92.8161 13.53Z" fill="#1B5DEF"/>
<path d="M132.918 14.8105C133.017 14.8997 133.113 14.9918 133.209 15.0847C133.235 15.1096 133.262 15.1344 133.289 15.1601C134.4 16.2311 134.953 17.8906 134.993 19.4095C135.008 20.1412 135.009 20.8853 134.889 21.6087C131.817 21.6087 128.745 21.6087 125.58 21.6087C125.783 22.4247 126.023 23.3026 126.783 23.7756C127.302 24.0737 127.823 24.1857 128.418 24.1862C128.441 24.1863 128.463 24.1863 128.487 24.1863C129.2 24.1852 129.87 24.0375 130.407 23.5334C130.646 23.2813 130.828 22.9785 130.957 22.6566C131.212 22.7237 131.462 22.8001 131.711 22.8844C131.748 22.8965 131.784 22.9086 131.821 22.9211C131.938 22.9603 132.054 22.9997 132.171 23.039C132.252 23.0663 132.333 23.0935 132.414 23.1207C133.055 23.3362 133.694 23.5546 134.333 23.7755C134.462 23.8201 134.591 23.8641 134.721 23.9074C134.482 24.9499 133.663 25.8286 132.793 26.3931C130.795 27.6353 128.286 27.8246 126.031 27.2906C124.353 26.8694 122.914 25.8672 122.013 24.3774C120.954 22.5728 120.819 20.1235 121.331 18.1212C121.623 17.0391 122.13 16.1085 122.892 15.2875C122.919 15.2583 122.946 15.2291 122.973 15.199C125.077 12.9904 129.014 12.6848 132.918 14.8105ZM126.306 17.3387C125.912 17.8381 125.703 18.4131 125.614 19.0397C127.244 19.0397 128.874 19.0397 130.554 19.0397C130.481 18.587 130.481 18.587 130.361 18.1523C130.352 18.1272 130.343 18.1021 130.335 18.0763C130.196 17.6885 130.007 17.3703 129.714 17.0791C129.695 17.0597 129.677 17.0403 129.658 17.0203C129.28 16.6565 128.712 16.5524 128.21 16.5572C128.172 16.5575 128.134 16.5578 128.094 16.5581C127.407 16.5719 126.774 16.8136 126.306 17.3387Z" fill="#1B5DEF"/>
<path d="M41.7706 13.9693C41.8033 13.9851 41.8033 13.9851 41.8366 14.0012C42.3565 14.2557 42.8196 14.5937 43.2317 15.0008C43.2826 15.0508 43.3344 15.0999 43.3864 15.1489C44.2362 15.9608 44.7237 17.0803 44.9715 18.2159C44.9765 18.2388 44.9816 18.2617 44.9869 18.2853C45.0907 18.7947 45.1084 19.3069 45.1062 19.8251C45.1059 19.9266 45.1062 20.0281 45.1067 20.1296C45.1074 21.1634 45.1074 21.1634 44.9967 21.6089C41.9359 21.6089 38.8752 21.6089 35.7218 21.6089C35.8987 22.454 36.1476 23.2579 36.886 23.7658C37.6121 24.2205 38.5872 24.309 39.4141 24.1272C39.8585 24.0158 40.2441 23.8015 40.5608 23.4681C40.5813 23.4482 40.6017 23.4282 40.6228 23.4077C40.8297 23.1925 40.9592 22.9186 41.0985 22.6568C41.3399 22.7204 41.5768 22.7919 41.8128 22.8736C41.8611 22.8902 41.8611 22.8902 41.9105 22.9071C42.0158 22.9433 42.1211 22.9796 42.2264 23.0159C42.3 23.0413 42.3737 23.0666 42.4473 23.0919C42.6015 23.1448 42.7557 23.1978 42.9099 23.2509C43.2667 23.3736 43.6238 23.4956 43.9808 23.6176C44.1606 23.679 44.3404 23.7405 44.5202 23.802C44.5805 23.8226 44.6408 23.8433 44.7011 23.8639C44.7436 23.8784 44.7861 23.893 44.8286 23.9075C44.8188 23.9554 44.8087 24.0033 44.7986 24.0512C44.793 24.0779 44.7874 24.1045 44.7817 24.132C44.7502 24.2561 44.6964 24.365 44.6375 24.4779C44.6256 24.5013 44.6136 24.5246 44.6013 24.5487C43.9137 25.8739 42.655 26.7088 41.2695 27.1628C40.4986 27.4046 39.688 27.5375 38.8806 27.5583C38.8524 27.559 38.8241 27.5598 38.795 27.5605C36.6915 27.6064 34.6341 27.0775 33.0759 25.6042C32.8997 25.4338 32.7427 25.2542 32.5966 25.0568C32.5831 25.0389 32.5697 25.021 32.5558 25.0025C31.9068 24.1333 31.5171 23.148 31.3196 22.0821C31.314 22.053 31.3085 22.0238 31.3028 21.9938C31.1173 20.963 31.1245 19.7641 31.3196 18.7356C31.328 18.6897 31.328 18.6897 31.3365 18.6429C31.4631 17.971 31.662 17.2999 31.9923 16.6998C32.0249 16.6405 32.0563 16.5806 32.0878 16.5207C32.356 16.0245 32.7055 15.5859 33.1006 15.1862C33.1175 15.1692 33.1343 15.1521 33.1516 15.1345C35.2811 13.004 39.1436 12.6803 41.7706 13.9693ZM36.4611 17.3158C36.4362 17.3419 36.4114 17.3679 36.3857 17.3947C35.994 17.8447 35.8177 18.461 35.7218 19.0398C37.3519 19.0398 38.9821 19.0398 40.6617 19.0398C40.6113 18.6555 40.6113 18.6555 40.523 18.2835C40.5124 18.2479 40.5124 18.2479 40.5015 18.2116C40.3078 17.5983 39.9814 17.0995 39.4183 16.775C39.2972 16.7184 39.1776 16.6744 39.0486 16.6398C39.0275 16.6339 39.0063 16.628 38.9845 16.622C38.0718 16.3902 37.1081 16.6356 36.4611 17.3158Z" fill="#1B5DEF"/>
<path d="M88.1775 14.9955C89.2364 15.9689 89.898 17.2462 90.1717 18.6594C90.1791 18.6976 90.1791 18.6976 90.1867 18.7365C90.2847 19.2869 90.3083 19.8381 90.3061 20.396C90.306 20.446 90.306 20.446 90.3059 20.4969C90.3043 21.0089 90.2882 21.5097 90.1948 22.0144C90.1892 22.0451 90.1836 22.0759 90.1779 22.1076C89.867 23.7563 89.0148 25.2984 87.6273 26.2695C87.5215 26.3413 87.4136 26.4094 87.3048 26.4764C87.2713 26.4972 87.2713 26.4972 87.2372 26.5184C85.4193 27.6301 83.0056 27.8187 80.9609 27.3331C80.3372 27.1739 79.7387 26.9529 79.1725 26.6454C79.1519 26.6344 79.1313 26.6234 79.1101 26.612C77.6615 25.8307 76.6604 24.4633 76.1746 22.9024C75.9175 22.0289 75.8222 21.0982 75.8456 20.189C75.8462 20.1653 75.8468 20.1416 75.8474 20.1172C75.8997 18.3019 76.4496 16.6272 77.6939 15.2875C77.7194 15.26 77.7449 15.2325 77.7712 15.2042C78.1453 14.8143 78.5749 14.5122 79.0381 14.2396C79.058 14.2277 79.0779 14.2158 79.0985 14.2036C81.6832 12.6797 85.6912 12.8822 88.1775 14.9955ZM81.3286 17.3306C80.639 18.1522 80.5428 19.3522 80.5419 20.3791C80.5418 20.4032 80.5418 20.4272 80.5418 20.452C80.5433 21.462 80.6371 22.5818 81.2896 23.4003C81.3078 23.4241 81.326 23.448 81.3448 23.4725C81.6941 23.9045 82.2265 24.1351 82.7686 24.1937C83.4057 24.2504 84.0337 24.1402 84.5492 23.7383C85.3101 23.0917 85.519 22.0834 85.6046 21.1277C85.6141 20.995 85.6204 20.8628 85.6246 20.7298C85.6257 20.6945 85.6257 20.6945 85.6268 20.6585C85.658 19.4869 85.5686 18.1157 84.7256 17.2205C84.2585 16.7645 83.6327 16.5918 82.9932 16.5985C82.3425 16.6366 81.7857 16.8497 81.3286 17.3306Z" fill="#1B5DEF"/>
<path d="M115.465 9.1692C115.465 10.6082 115.465 12.0472 115.465 13.5298C116.807 13.5298 118.149 13.5298 119.532 13.5298C119.532 14.6342 119.532 15.7386 119.532 16.8764C118.19 16.8764 116.848 16.8764 115.465 16.8764C115.469 17.8802 115.469 17.8802 115.474 18.884C115.476 19.2935 115.478 19.7031 115.48 20.1127C115.481 20.411 115.482 20.7094 115.484 21.0077C115.485 21.1655 115.485 21.3233 115.486 21.4811C115.486 21.63 115.487 21.7789 115.488 21.9278C115.488 21.9821 115.488 22.0364 115.488 22.0907C115.489 22.6525 115.496 23.2729 115.902 23.7047C116.277 24.0705 116.781 24.1828 117.29 24.1778C117.944 24.1613 118.515 24.0361 119.079 23.6862C119.162 23.6371 119.162 23.6371 119.263 23.6033C119.386 24.1858 119.482 24.7725 119.578 25.36C119.599 25.4901 119.621 25.6202 119.642 25.7503C119.684 26.0036 119.725 26.257 119.767 26.5103C119.708 26.5483 119.649 26.5862 119.59 26.6241C119.557 26.6452 119.524 26.6663 119.49 26.6881C117.902 27.6922 115.669 27.7552 113.888 27.3468C113.241 27.1881 112.605 26.9302 112.105 26.4765C112.068 26.4461 112.068 26.4461 112.03 26.4151C111.258 25.7717 110.932 24.7708 110.833 23.7985C110.776 23.1555 110.786 22.5109 110.788 21.8659C110.788 21.6899 110.788 21.514 110.788 21.3381C110.788 21.0062 110.789 20.6744 110.79 20.3426C110.79 19.9642 110.791 19.5859 110.791 19.2075C110.792 18.4305 110.793 17.6534 110.794 16.8764C110.029 16.8764 109.264 16.8764 108.476 16.8764C108.476 15.772 108.476 14.6677 108.476 13.5298C109.241 13.5298 110.006 13.5298 110.794 13.5298C110.794 12.5147 110.794 11.4996 110.794 10.4537C111.266 10.3234 111.738 10.193 112.225 10.0587C113.624 9.6722 113.624 9.6722 115.022 9.2826C115.051 9.27456 115.08 9.26652 115.11 9.25823C115.162 9.24373 115.213 9.2292 115.265 9.21462C115.428 9.1692 115.428 9.1692 115.465 9.1692Z" fill="#1B5DEF"/>
<path d="M0 5.78878C2.25117 5.78878 4.50235 5.78878 6.82174 5.78878C6.48683 6.46257 6.14401 7.12723 5.77182 7.78074C5.7103 7.88897 5.64916 7.99741 5.58808 8.1059C5.11439 8.94584 4.63503 9.78269 4.10165 10.586C4.03761 10.6826 3.97393 10.7795 3.91037 10.8764C3.0982 12.1145 3.0982 12.1145 2.65477 12.6509C2.79955 12.9297 2.94958 13.2047 3.10633 13.4769C3.34868 13.8994 3.57407 14.3307 3.79982 14.7623C3.86455 14.8859 3.92994 15.0091 3.99632 15.1319C4.75212 16.534 5.1967 18.0616 5.55106 19.6079C5.55626 19.6304 5.56146 19.653 5.56682 19.6762C5.57679 19.7202 5.58642 19.7644 5.5957 19.8086C5.60616 19.8576 5.61732 19.9064 5.62934 19.9551C5.70262 20.2883 5.68807 20.6268 5.68681 20.966C5.68679 21.0377 5.6868 21.1093 5.68684 21.181C5.68686 21.3746 5.68647 21.5683 5.686 21.7619C5.68557 21.9646 5.68554 22.1673 5.68546 22.37C5.68525 22.7534 5.6847 23.1369 5.68402 23.5203C5.68313 24.0388 5.68277 24.5572 5.68237 25.0756C5.68174 25.8919 5.6804 26.7081 5.67918 27.5244C3.80505 27.5244 1.93092 27.5244 0 27.5244C0 20.3516 0 13.1789 0 5.78878Z" fill="#1B5DEF"/>
<path d="M8.90524 1.5635C8.91633 1.5635 8.92742 1.5635 8.93884 1.5635C8.93902 1.6244 8.93902 1.6244 8.93921 1.68653C8.94097 2.23568 8.94381 2.78482 8.94724 3.33396C8.94738 3.35682 8.94753 3.37968 8.94767 3.40324C8.96079 5.50666 9.00863 7.60901 9.06076 9.71176C9.06152 9.74249 9.06228 9.77322 9.06306 9.80488C9.07032 10.0973 9.07761 10.3897 9.08513 10.6821C9.08784 10.7872 9.09051 10.8923 9.09318 10.9974C9.09499 11.0683 9.09685 11.1391 9.09871 11.2099C9.10461 11.4425 9.10857 11.6747 9.10686 11.9073C9.07923 11.9103 9.05159 11.9132 9.02312 11.9162C8.68093 11.9595 8.39196 12.0471 8.15241 12.308C7.89622 12.6545 7.7878 13.0352 7.82989 13.4623C7.91425 13.8476 8.10462 14.1867 8.43477 14.4088C8.81065 14.5986 9.15007 14.6727 9.56053 14.5588C9.90279 14.443 10.1612 14.2466 10.3502 13.9356C10.5445 13.5357 10.5673 13.1788 10.4261 12.7563C10.2919 12.4222 10.0495 12.1535 9.72082 12.0036C9.63697 11.9721 9.55575 11.9543 9.46785 11.9376C9.43791 11.9318 9.40797 11.9261 9.37713 11.9201C9.35448 11.9159 9.33183 11.9117 9.30849 11.9073C9.25487 10.8668 9.21251 9.82605 9.17617 8.78476C9.17476 8.74448 9.17334 8.7042 9.17188 8.6627C9.11804 7.13038 9.08014 5.59788 9.04806 4.06496C9.04751 4.03884 9.04696 4.01272 9.0464 3.98581C9.03903 3.63461 9.0318 3.28341 9.02477 2.9322C9.02385 2.88619 9.02292 2.84018 9.02199 2.79418C9.01899 2.64518 9.01606 2.49619 9.01317 2.34719C9.01244 2.31069 9.01171 2.27419 9.01095 2.23658C9.00669 2.01219 9.00521 1.78793 9.00605 1.5635C9.07326 1.59731 9.07326 1.59731 9.09814 1.65425C9.10592 1.67911 9.1137 1.70397 9.12171 1.72959C9.13076 1.75801 9.1398 1.78642 9.14912 1.8157C9.15883 1.84703 9.16854 1.87837 9.17854 1.91065C9.20002 1.97833 9.22151 2.046 9.24301 2.11368C9.25435 2.14966 9.26568 2.18565 9.27736 2.22272C9.838 3.99867 10.4649 5.75169 11.3717 7.38175C11.4293 7.48581 11.4861 7.5903 11.5428 7.69486C11.8464 8.2528 12.1674 8.79801 12.5009 9.33829C12.5204 9.36991 12.5399 9.40154 12.56 9.43412C12.8147 9.84535 13.0803 10.2492 13.3473 10.6524C13.3627 10.6755 13.378 10.6987 13.3938 10.7225C13.687 11.165 13.9844 11.6046 14.2904 12.0383C14.307 12.0621 14.3237 12.0859 14.3408 12.1105C14.4134 12.2142 14.4866 12.317 14.5625 12.4184C14.5843 12.4477 14.6061 12.4771 14.6285 12.5074C14.6471 12.5316 14.6657 12.5558 14.6848 12.5808C14.7326 12.6794 14.7202 12.7157 14.6852 12.82C14.6392 12.9248 14.588 13.0266 14.5361 13.1285C14.521 13.1587 14.5058 13.1888 14.4902 13.2199C14.4064 13.3859 14.3205 13.5506 14.2327 13.7146C13.3921 15.2909 12.7227 16.9867 12.3728 18.7441C12.3663 18.7764 12.3597 18.8087 12.3529 18.842C12.2856 19.2011 12.2654 19.5499 12.2321 19.9188C10.2914 19.9188 8.35076 19.9188 6.35129 19.9188C6.27624 19.6168 6.27624 19.6168 6.24903 19.4753C5.94313 17.9207 5.419 16.4116 4.73826 14.9835C4.72446 14.9544 4.71066 14.9253 4.69644 14.8954C4.33877 14.1467 3.91256 13.4345 3.49489 12.7186C3.59029 12.5413 3.6984 12.3864 3.82254 12.2285C4.58257 11.2446 5.2568 10.1771 5.88082 9.10166C5.8981 9.07199 5.91539 9.04233 5.9332 9.01176C6.7896 7.53289 7.45786 5.98659 7.99851 4.3666C8.0324 4.26513 8.06645 4.16372 8.10053 4.06232C8.37922 3.23263 8.65108 2.40115 8.90524 1.5635Z" fill="#1B5DEF"/>
<path d="M30.5467 13.8341C30.4953 14.2661 30.4439 14.6981 30.3925 15.13C30.3686 15.3307 30.3447 15.5313 30.3208 15.7319C30.2978 15.9259 30.2747 16.1199 30.2515 16.3138C30.2428 16.3875 30.234 16.4611 30.2253 16.5348C30.1782 16.9307 30.1303 17.3264 30.0763 17.7215C30.0381 17.7114 29.9999 17.7014 29.9605 17.6911C28.8226 17.3928 27.6515 17.366 26.6066 17.9565C26.4619 18.0436 26.3358 18.1481 26.2117 18.2623C26.1774 18.2923 26.1774 18.2923 26.1423 18.3228C25.6006 18.8239 25.3323 19.6061 25.3012 20.3325C25.2997 20.4119 25.2992 20.4911 25.2991 20.5705C25.2989 20.6006 25.2988 20.6307 25.2986 20.6616C25.2981 20.7616 25.2978 20.8616 25.2975 20.9615C25.2972 21.0335 25.2968 21.1055 25.2965 21.1775C25.2956 21.3723 25.2949 21.5671 25.2942 21.762C25.2935 21.9658 25.2926 22.1696 25.2917 22.3734C25.29 22.7592 25.2885 23.1449 25.287 23.5306C25.285 24.052 25.2828 24.5734 25.2806 25.0948C25.2771 25.916 25.274 26.7371 25.2708 27.5583C23.7294 27.5583 22.1879 27.5583 20.5998 27.5583C20.5998 23.0181 20.5998 18.478 20.5998 13.8003C21.9638 13.8003 23.3278 13.8003 24.7331 13.8003C24.8003 14.7242 24.8675 15.6482 24.9348 16.5722C24.9422 16.5551 24.9497 16.538 24.9574 16.5204C24.992 16.4416 25.0266 16.3628 25.0613 16.284C25.0731 16.2572 25.0848 16.2303 25.097 16.2026C25.5577 15.1563 26.2918 14.2446 27.3726 13.8112C28.3426 13.4413 29.6044 13.3531 30.5467 13.8341Z" fill="#1B5DEF"/>
<path d="M11.3249 5.85629C11.6366 5.87346 11.9399 5.90737 12.2469 5.96404C12.2875 5.9715 12.3281 5.97896 12.37 5.98665C13.6816 6.23463 15.0179 6.70918 16.0295 7.61407C16.0568 7.63786 16.0841 7.66165 16.1122 7.68617C16.1981 7.76216 16.2821 7.83974 16.3656 7.9183C16.3974 7.94811 16.4293 7.97791 16.4621 8.00862C17.6437 9.14045 18.2383 10.8432 18.2879 12.4602C18.292 12.6547 18.2923 12.8492 18.2915 13.0437C18.2914 13.0951 18.2914 13.0951 18.2913 13.1476C18.2848 15.0681 17.7073 16.8243 16.3543 18.2069C16.2212 18.3383 16.0772 18.4534 15.9287 18.5664C15.8974 18.5912 15.8662 18.616 15.8339 18.6416C15.5757 18.8432 15.3047 19.0122 15.0214 19.1748C14.9921 19.192 14.9921 19.192 14.9623 19.2095C14.3943 19.5417 13.5351 19.9861 12.8707 19.9861C13.1642 17.4642 14.2416 15.0175 15.4298 12.8009C15.4503 12.7625 15.4708 12.7241 15.4919 12.6846C15.5221 12.6307 15.5221 12.6307 15.5529 12.5756C15.5981 12.4877 15.5981 12.4877 15.5894 12.4098C15.5513 12.3303 15.5042 12.2774 15.4436 12.2134C15.2673 12.0198 15.1105 11.8128 14.9542 11.6029C14.9364 11.5791 14.9186 11.5552 14.9003 11.5307C14.6048 11.1339 14.3218 10.7298 14.0469 10.3183C14.021 10.2797 14.021 10.2797 13.9946 10.2403C13.2225 9.08543 12.496 7.90126 11.7954 6.70138C11.7723 6.6619 11.7492 6.62241 11.7261 6.58293C11.6594 6.46897 11.593 6.3549 11.5265 6.24081C11.5062 6.20592 11.4858 6.17103 11.4648 6.13509C11.4464 6.10331 11.4279 6.07152 11.4089 6.03878C11.3926 6.01078 11.3763 5.98277 11.3595 5.95392C11.3249 5.8901 11.3249 5.8901 11.3249 5.85629Z" fill="#1B5DEF"/>
<path d="M9.006 1.5635C9.07321 1.59731 9.07321 1.59731 9.09809 1.65425C9.10587 1.67911 9.11365 1.70397 9.12166 1.72959C9.13071 1.75801 9.13975 1.78642 9.14907 1.8157C9.15878 1.84703 9.16849 1.87837 9.17849 1.91065C9.19997 1.97833 9.22147 2.04601 9.24297 2.11369C9.25431 2.14968 9.26564 2.18566 9.27732 2.22274C9.46957 2.83178 9.67017 3.43726 9.88812 4.03749C9.89921 4.06803 9.91029 4.09856 9.92171 4.13002C10.0849 4.57809 10.2555 5.02301 10.4358 5.46439C10.4512 5.5022 10.4666 5.54002 10.4825 5.57898C10.496 5.61164 10.5094 5.64431 10.5233 5.67796C10.5518 5.75513 10.5518 5.75513 10.5518 5.82273C10.075 5.82273 9.59811 5.82273 9.10681 5.82273C9.0682 5.20132 9.0682 5.20132 9.06322 4.91918C9.06223 4.87099 9.06223 4.87099 9.06122 4.82184C9.05911 4.71792 9.05717 4.614 9.05523 4.51008C9.05378 4.43671 9.05232 4.36335 9.05085 4.28998C9.04782 4.13722 9.04486 3.98447 9.04196 3.83171C9.03826 3.63676 9.03443 3.44181 9.03055 3.24686C9.02682 3.05947 9.02317 2.87208 9.01952 2.68469C9.01883 2.64945 9.01813 2.6142 9.01742 2.57789C9.01545 2.47732 9.01354 2.37675 9.01164 2.27617C9.01106 2.24707 9.01048 2.21796 9.00989 2.18797C9.00603 1.9798 9.0054 1.77171 9.006 1.5635Z" fill="#000A3A"/>
<path d="M8.90521 1.5635C8.9163 1.5635 8.92739 1.5635 8.93882 1.5635C8.93882 2.96905 8.93882 4.3746 8.93882 5.82273C8.47306 5.82273 8.0073 5.82273 7.52742 5.82273C7.57082 5.6263 7.61123 5.45789 7.67786 5.27224C7.69476 5.22467 7.71165 5.1771 7.72855 5.12952C7.7375 5.10455 7.74644 5.07957 7.75566 5.05383C7.94645 4.52029 8.12849 3.98386 8.30663 3.44593C8.318 3.41159 8.32937 3.37726 8.34109 3.34188C8.53635 2.75132 8.7246 2.15876 8.90521 1.5635Z" fill="#000A3A"/>
</svg>
