<svg width="49" height="51" viewBox="0 0 49 51" fill="none" xmlns="http://www.w3.org/2000/svg">
<rect x="1.46075" y="3.38236" width="47.0393" height="47.0393" rx="23.5" fill="#FFD284"/>
<rect x="1.46075" y="3.38236" width="47.0393" height="47.0393" rx="23.5" stroke="#6366F1"/>
<g clip-path="url(#clip0_0_225)">
<path d="M31.8566 20.2563C31.8211 25.4002 29.4088 27.103 27.0675 27.0321C24.7261 26.9611 30.0119 19.9725 31.3245 20.1854" fill="#442200"/>
<mask id="mask0_0_225" style="mask-type:luminance" maskUnits="userSpaceOnUse" x="-5" y="-6" width="54" height="48">
<path d="M-4.39886 21.9946C5.25038 45.9758 41.2222 50.3747 47.182 18.8018C50.8005 -0.993304 47.3239 -5.88887 47.3239 -5.88887C47.3239 -5.88887 -3.54745 -5.53412 -3.54745 -5.46317" fill="white"/>
</mask>
<g mask="url(#mask0_0_225)">
<path d="M-1.02867 45.6565C11.565 28.7349 38.5616 28.7349 49.1686 46.366L-1.02867 45.6565Z" fill="#883311"/>
</g>
<mask id="mask1_0_225" style="mask-type:luminance" maskUnits="userSpaceOnUse" x="-5" y="-3" width="54" height="44">
<path d="M-4.39886 22.8485C5.25038 44.513 41.2222 48.487 47.182 19.9642C50.8005 2.08128 47.3239 -2.34136 47.3239 -2.34136C47.3239 -2.34136 -3.54745 -2.02088 -3.54745 -1.95678" fill="white"/>
</mask>
<g mask="url(#mask1_0_225)">
<path d="M-1.59628 46.4015C12.7002 28.8058 38.5971 29.6217 49.417 47.1819L-1.59628 46.4015Z" fill="#EEEEDD"/>
</g>
<path d="M29.6928 33.7014C31.502 35.1204 27.1741 38.2422 20.9304 36.5394C26.8193 37.781 31.4311 34.6592 28.7704 33.6304" fill="#883311"/>
<path d="M16.4959 4.43439C12.9839 7.94643 12.1679 10.8909 12.1325 13.7289C13.1258 13.7289 14.1191 13.516 13.6224 13.9772C12.9839 18.4471 13.6579 21.4625 14.0481 22.5267C14.4384 23.591 15.1124 24.265 14.7222 25.8259C14.3319 27.3868 14.5803 29.7636 20.5401 30.2248C20.2563 30.4377 19.6177 34.6947 19.5468 34.5883C21.3915 36.9651 28.522 36.2201 28.4865 33.2402C28.451 30.2603 28.5929 22.172 28.5929 22.172L29.5153 5.39222" fill="#883311"/>
<path d="M15.9639 6.20815C12.0616 9.57829 12.0616 12.9839 12.0971 14.2965C13.0904 14.2965 13.1259 14.1901 13.1259 14.1901C13.1259 14.1901 13.1968 19.6532 14.4384 22.2429C14.7932 23.3426 15.4672 24.3714 15.1834 25.6485C14.8996 26.9256 15.006 28.0254 16.6734 28.8413C18.3407 29.6572 19.4404 29.7636 19.4404 29.7636C19.4404 29.7636 19.5823 33.3821 19.5469 34.269C19.5114 35.1559 21.6754 35.6525 23.9458 35.617C26.2162 35.5816 28.0609 34.4818 28.0964 33.1338C28.1319 31.7857 28.1319 25.6485 28.1319 25.6485C28.1319 25.6485 33.2048 19.1211 29.8347 5.64055" fill="#FF8855"/>
<path d="M18.7664 29.9765C20.6466 30.4377 24.4425 30.012 26.1098 28.0254C24.4779 29.6927 20.6112 30.1539 18.6955 29.5863M16.4606 23.591C17.4893 25.4002 20.4338 25.2583 21.3561 23.591H16.4606ZM16.4606 11.6004C14.8287 11.6004 14.6159 11.423 18.6245 11.3875C22.5978 11.3875 23.3427 11.6004 21.1788 11.6004M16.1768 10.9263C13.729 10.9263 15.1125 10.5716 18.5536 10.6071C22.0302 10.6425 25.3293 10.9263 20.7885 10.9263" fill="#883311"/>
<path d="M15.5735 22.9169C16.8151 25.0809 20.9303 24.8681 22.1009 23.1298L15.5735 22.9169Z" fill="#EE6633"/>
<path d="M19.2274 23.2362C14.1545 23.6619 13.374 23.6974 13.3385 23.6619C13.374 20.7175 18.3051 20.4692 19.0146 22.6686" fill="#442200"/>
<path d="M19.1211 22.101C14.5093 22.2429 14.8995 18.2697 18.0568 17.9859L19.1211 22.101Z" fill="#FF8855"/>
<path d="M19.1211 22.101C14.5093 22.2429 14.8995 18.2697 18.0568 17.9859C15.3252 18.4471 15.1478 21.8527 19.0856 21.7817" fill="#883311"/>
<path d="M17.5957 23.2007C18.8728 20.2563 23.3426 20.8949 23.3781 23.8748L17.5957 23.2007Z" fill="#442200"/>
<path d="M17.5601 14.3674C17.7375 16.9571 13.3386 17.8085 13.445 14.2965L17.5601 14.3674ZM20.0079 14.2255C20.0079 17.3473 24.3714 17.4892 24.194 14.1901L20.0079 14.2255Z" fill="white"/>
<path d="M15.1124 15.4317C15.5042 15.4317 15.8219 15.114 15.8219 14.7222C15.8219 14.3303 15.5042 14.0127 15.1124 14.0127C14.7205 14.0127 14.4029 14.3303 14.4029 14.7222C14.4029 15.114 14.7205 15.4317 15.1124 15.4317Z" fill="black"/>
<path d="M21.8882 15.4317C22.28 15.4317 22.5977 15.114 22.5977 14.7222C22.5977 14.3303 22.28 14.0127 21.8882 14.0127C21.4963 14.0127 21.1787 14.3303 21.1787 14.7222C21.1787 15.114 21.4963 15.4317 21.8882 15.4317Z" fill="black"/>
<path d="M14.5449 14.935C14.6624 14.935 14.7577 14.8397 14.7577 14.7222C14.7577 14.6046 14.6624 14.5093 14.5449 14.5093C14.4273 14.5093 14.332 14.6046 14.332 14.7222C14.332 14.8397 14.4273 14.935 14.5449 14.935Z" fill="white"/>
<path d="M21.3207 14.935C21.4382 14.935 21.5335 14.8397 21.5335 14.7222C21.5335 14.6046 21.4382 14.5093 21.3207 14.5093C21.2031 14.5093 21.1078 14.6046 21.1078 14.7222C21.1078 14.8397 21.2031 14.935 21.3207 14.935Z" fill="white"/>
<path d="M11.8132 14.4739C12.5582 12.097 17.8085 12.8065 17.9149 14.4739H11.8132ZM19.4404 14.4739C19.5823 12.5937 25.1519 12.3453 25.6131 14.4739H19.4404ZM29.7636 18.6244C26.0742 12.4163 28.1673 8.62046 28.8413 7.80453C24.2295 8.12381 22.7041 8.08833 17.0635 7.87548C11.423 7.66263 8.05285 5.67602 7.9819 4.15059C7.91095 2.62516 10.8199 -0.248327 19.7597 0.390225C18.8373 0.567601 18.7309 1.95113 18.7309 1.95113C18.7309 1.95113 19.9016 0.674026 21.6044 0.709502C21.0368 1.09973 20.6465 1.70281 20.6465 2.16398C30.1184 1.419 34.4464 4.68272 31.8922 6.91765C32.8855 6.421 33.7014 6.49195 33.7014 6.49195L32.779 7.34335L34.1626 7.44978C34.1626 7.44978 33.4176 8.33666 32.3888 8.51403C35.9008 11.7777 32.5307 19.4759 30.7569 19.7242" fill="#442200"/>
<path d="M28.7349 16.6378C29.8346 13.4096 33.3112 14.1546 33.5595 18.589C33.8079 23.0234 30.083 24.0876 29.3025 22.5977" fill="#883311"/>
<path d="M29.125 22.5977C30.4731 24.0521 33.2046 22.5267 33.2756 18.8373C33.3465 15.1479 30.3311 13.0549 28.2736 17.0635" fill="#FF8855"/>
</g>
<defs>
<clipPath id="clip0_0_225">
<rect width="46.1177" height="46.1177" rx="23.04" fill="white"/>
</clipPath>
</defs>
</svg>
