<svg width="48" height="48" viewBox="0 0 48 48" fill="none" xmlns="http://www.w3.org/2000/svg">
<rect x="0.5" y="0.5" width="47" height="47" rx="23.5" fill="white"/>
<rect x="0.5" y="0.5" width="47" height="47" rx="23.5" stroke="#D1D5DB"/>
<path d="M20.6669 30.929C22.8813 31.1917 25.1189 31.1917 27.3332 30.929C29.507 30.6716 31.6427 30.1586 33.6962 29.4007C31.9572 27.4743 30.9962 24.9702 31.0001 22.375V21.5C31.0001 19.6435 30.2626 17.863 28.9498 16.5503C27.6371 15.2375 25.8566 14.5 24.0001 14.5C22.1436 14.5 20.3631 15.2375 19.0503 16.5503C17.7376 17.863 17.0001 19.6435 17.0001 21.5V22.375C17.0036 24.9704 16.0422 27.4744 14.3027 29.4007C16.3246 30.1473 18.4561 30.6665 20.6669 30.929ZM27.3332 30.929C27.5014 31.4538 27.5432 32.011 27.4553 32.555C27.3673 33.0991 27.1522 33.6147 26.8273 34.0598C26.5025 34.505 26.0771 34.8672 25.5858 35.1169C25.0945 35.3666 24.5512 35.4967 24.0001 35.4967C23.449 35.4967 22.9056 35.3666 22.4143 35.1169C21.923 34.8672 21.4977 34.505 21.1728 34.0598C20.8479 33.6147 20.6328 33.0991 20.5449 32.555C20.457 32.011 20.4988 31.4538 20.6669 30.929" stroke="#111827" stroke-width="1.5" stroke-linecap="round" stroke-linejoin="round"/>
<path d="M27 17C27 14.2386 29.2386 12 32 12C34.7614 12 37 14.2386 37 17C37 19.7614 34.7614 22 32 22C29.2386 22 27 19.7614 27 17Z" fill="#0C9D61"/>
</svg>
